{"title":"Tomorrow.When.The.War.Began.2010.DvDRip.H264.Feel-Free","uid":6058619,"size":829530406,"categoryP":"video","categoryS":"movies","magnet":"?xt=urn:btih:1a4b95d74c75c7561e79e5038a5b01985e2b80f3&amp;dn=Tomorrow.When.The.War.Began.2010.DvDRip.H264.Feel-Free&amp;tr=udp%3A%2F%2Ftracker.openbittorrent.com%3A80&amp;tr=udp%3A%2F%2Fopen.demonii.com%3A1337&amp;tr=udp%3A%2F%2Ftracker.coppersurfer.tk%3A6969&amp;tr=udp%3A%2F%2Fexodus.desync.com%3A6969","seeders":0,"leechers":1,"uploader":"HeroMaster","files":-1,"time":1292976892,"description":"Genre:Action | Adventure | Drama\nLanguage:English\nIMDb:http://www.imdb.com/title/tt1456941/\nSource:MoRT.Thx\n\n\nFormat : MPEG-4\nFormat profile : Base Media\nCodec ID : isom\nFile size : 790 MiB\nDuration : 1h 39mn\nOverall bit rate : 1 109 Kbps\n\n\nVideo\nCodec ID : avc1\nCodec ID/Info : Advanced Video Coding\nDuration : 1h 39mn\nBit rate mode : Variable\nBit rate : 943 Kbps\nWidth : 720 pixels\nHeight : 304 pixels\nDisplay aspect ratio : 2.35:1\nFrame rate mode : Constant\nFrame rate : 23.976 fps\nOriginal frame rate : 23.000 fps\nColor space : YUV\nChroma subsampling : 4:2:0\nBit depth : 8 bits\nScan type : Progressive\nBits/(Pixel*Frame) : 0.180\nStream size : 671 MiB (85%)\n\nAudio\nID : 1\nFormat : AAC\nFormat/Info : Advanced Audio Codec\nFormat version : Version 4\nFormat profile : LC\nCodec ID : 40\nDuration : 1h 39mn\nBit rate mode : Constant\nBit rate : 160 Kbps\nChannel(s) : 2 channels\nChannel positions : Front: L R\nSampling rate : 48.0 KHz\nStream size : 114 MiB (14%)\nLanguage : English\n\n\nPlot:\nWhen their country is invaded and their families are taken, eight unlikely high school teenagers band together to fight.\n\n\nScreenshots:\n\n &lt;a href=&quot;\nhttp://www.leetleech.org/images/43098025681109930222.png&quot; rel=&quot;nofollow&quot; target=&quot;_NEW&quot;&gt;\nhttp://www.leetleech.org/images/43098025681109930222.png&lt;/a&gt;\n\n\nENJOY!","torrent":{"xt":"urn:btih:1a4b95d74c75c7561e79e5038a5b01985e2b80f3","amp;dn":"Tomorrow.When.The.War.Began.2010.DvDRip.H264.Feel-Free","amp;tr":["udp%3A%2F%2Ftracker.openbittorrent.com%3A80","udp%3A%2F%2Fopen.demonii.com%3A1337","udp%3A%2F%2Ftracker.coppersurfer.tk%3A6969","udp%3A%2F%2Fexodus.desync.com%3A6969"],"infoHash":"1a4b95d74c75c7561e79e5038a5b01985e2b80f3","infoHashBuffer":{"type":"Buffer","data":[26,75,149,215,76,117,199,86,30,121,229,3,138,91,1,152,94,43,128,243]},"announce":[],"urlList":[]}}